<svg width="22" height="22" viewBox="0 0 22 22" fill="none" xmlns="http://www.w3.org/2000/svg">
<path d="M17.3777 2.22168C17.4721 2.47971 18.5206 5.5503 16.3702 9.17127C15.0641 11.3706 13.081 11.5161 12.8867 11.5251C12.773 11.3674 11.6534 9.72415 12.563 7.33341C14.0605 3.3973 17.117 2.30826 17.3777 2.22168Z" fill="#80C56E"/>
<path d="M17.3777 2.22168L12.8867 11.5251C13.0809 11.5161 15.0641 11.3706 16.3702 9.17123C18.5206 5.5503 17.4721 2.47966 17.3777 2.22168Z" fill="#66AD66"/>
<path d="M4.6223 2.22168C4.52789 2.47971 3.47941 5.5503 5.62978 9.17127C6.93591 11.3706 8.91904 11.5161 9.11326 11.5251C9.227 11.3674 10.3466 9.72415 9.43703 7.33341C7.93948 3.3973 4.88303 2.30826 4.6223 2.22168Z" fill="#80C56E"/>
<path d="M9.43709 7.33337C7.9395 3.3973 4.88305 2.30826 4.62231 2.22168C7.27796 7.29401 8.7104 10.543 9.12424 11.5097C9.28357 11.2819 10.3232 9.66249 9.43709 7.33337Z" fill="#66AD66"/>
<path d="M11 0.322266C10.6798 0.63293 6.97884 4.3832 7.56747 11.1965C7.92497 15.3349 10.7224 16.9476 11 17.098C11.2777 16.9476 14.0751 15.3349 14.4326 11.1965C15.0213 4.3832 11.3203 0.63293 11 0.322266Z" fill="#80C56E"/>
<path d="M11 0.322266V17.098C11.2777 16.9476 14.0751 15.3349 14.4326 11.1965C15.0212 4.3832 11.3202 0.63293 11 0.322266Z" fill="#66AD66"/>
<path d="M18.9234 10.7515C19.6198 8.35819 19.3841 6.13379 19.3841 6.13379C19.3841 6.13379 18.0431 6.73118 14.673 8.90897C12.0534 10.6018 11.2429 13.5698 11 14.3697H14.0787C16.3166 14.3697 18.2982 12.9003 18.9234 10.7515Z" fill="#80C56E"/>
<path d="M19.3842 6.13379C19.3842 6.13379 15.9206 12.976 11 14.3697H14.0787C16.3167 14.3697 18.2982 12.9003 18.9235 10.7515C19.6198 8.35824 19.3842 6.13379 19.3842 6.13379Z" fill="#66AD66"/>
<path d="M3.07649 10.7515C2.38014 8.35824 2.61578 6.13379 2.61578 6.13379C2.61578 6.13379 3.95679 6.73118 7.32687 8.90897C9.94651 10.6018 10.757 13.5698 10.9999 14.3697H7.92118C5.68328 14.3697 3.70173 12.9003 3.07649 10.7515Z" fill="#80C56E"/>
<path d="M11 14.3697C10.757 13.5698 9.94653 10.6018 7.32694 8.90897C3.95681 6.73118 2.61584 6.13379 2.61584 6.13379C2.61584 6.13379 6.07938 12.976 11 14.3697Z" fill="#66AD66"/>
<path d="M13.2264 21.6778H8.77377C7.59277 21.6778 6.57966 20.8357 6.36369 19.6746L5.40906 14.5413H16.591L15.6364 19.6746C15.4205 20.8357 14.4074 21.6778 13.2264 21.6778Z" fill="#FEC37D"/>
<path d="M14.4282 14.5413L13.4736 19.6746C13.2576 20.8357 12.2445 21.6778 11.0635 21.6778H13.2262C14.4072 21.6778 15.4203 20.8357 15.6363 19.6746L16.5909 14.5413H14.4282Z" fill="#F9AE5D"/>
<path d="M16.786 15.6947H5.21417C4.74526 15.6947 4.36511 15.3146 4.36511 14.8456C4.36511 14.3767 4.74526 13.9966 5.21417 13.9966H16.786C17.255 13.9966 17.6351 14.3767 17.6351 14.8456C17.6351 15.3146 17.2549 15.6947 16.786 15.6947Z" fill="#F2A559"/>
<path d="M16.786 13.9966H15.4257V15.6947H16.786C17.2549 15.6947 17.635 15.3146 17.635 14.8456C17.635 14.3767 17.2548 13.9966 16.786 13.9966Z" fill="#EA8F3D"/>
<path d="M19.2329 10.8416C19.9389 8.4153 19.7145 6.1933 19.7046 6.09989C19.7045 6.0992 19.7044 6.09851 19.7043 6.09782C19.703 6.08588 19.7011 6.07402 19.6984 6.06238C19.6982 6.06147 19.6979 6.06061 19.6977 6.05971C19.6952 6.04927 19.6922 6.039 19.6887 6.0289C19.6875 6.02538 19.6861 6.02198 19.6847 6.01855C19.6818 6.01098 19.6787 6.00355 19.6752 5.9962C19.6736 5.99264 19.6718 5.98916 19.67 5.98568C19.6662 5.97828 19.6621 5.97111 19.6577 5.96402C19.6559 5.96118 19.6543 5.9583 19.6524 5.95551C19.6466 5.94675 19.6403 5.93824 19.6336 5.93003C19.633 5.92921 19.6324 5.92831 19.6317 5.9275C19.6239 5.91817 19.6156 5.90928 19.6067 5.90081C19.6057 5.89982 19.6046 5.89896 19.6035 5.89798C19.596 5.89102 19.5882 5.8844 19.58 5.87808C19.577 5.8758 19.5739 5.8737 19.5708 5.87151C19.5643 5.86687 19.5575 5.8624 19.5506 5.85819C19.5487 5.85707 19.5471 5.85574 19.5452 5.85462C19.5431 5.85338 19.5408 5.85252 19.5386 5.85131C19.5356 5.84968 19.5328 5.84783 19.5297 5.84629C19.526 5.84439 19.5221 5.84298 19.5184 5.84121C19.5142 5.83932 19.5101 5.83739 19.5059 5.83567C19.4981 5.83245 19.4901 5.8297 19.4821 5.82712C19.479 5.82613 19.476 5.82497 19.4728 5.82407C19.4496 5.81737 19.426 5.81346 19.4024 5.81213C19.4002 5.812 19.3979 5.81208 19.3956 5.812C19.3863 5.81165 19.3769 5.8117 19.3676 5.81217C19.364 5.81234 19.3604 5.81268 19.3568 5.81298C19.3487 5.81367 19.3406 5.81466 19.3327 5.81599C19.3287 5.81664 19.3248 5.81728 19.321 5.81805C19.3127 5.81973 19.3046 5.82179 19.2965 5.82407C19.2932 5.82497 19.29 5.82575 19.2868 5.82678C19.2756 5.8303 19.2646 5.83438 19.2539 5.83911C19.2537 5.83924 19.2534 5.83932 19.2531 5.83941C19.2214 5.85355 18.7712 6.05666 17.7713 6.62832C18.3822 4.16049 17.7607 2.33011 17.6805 2.1108C17.6796 2.1083 17.6784 2.10603 17.6774 2.10358C17.6755 2.09859 17.6734 2.09374 17.6712 2.08884C17.669 2.08398 17.6667 2.07917 17.6643 2.07449C17.662 2.07002 17.6596 2.06564 17.6571 2.06125C17.6543 2.05644 17.6515 2.05176 17.6486 2.04712C17.646 2.04304 17.6432 2.03904 17.6404 2.03509C17.6371 2.03057 17.6339 2.02611 17.6305 2.02177C17.6274 2.01794 17.6243 2.0142 17.6211 2.01046C17.6175 2.00634 17.6139 2.0023 17.6101 1.99839C17.6067 1.99482 17.6031 1.99134 17.5995 1.98791C17.5955 1.98413 17.5915 1.98047 17.5873 1.97695C17.5836 1.97377 17.5798 1.97068 17.5759 1.96763C17.5714 1.9641 17.5668 1.96075 17.5622 1.95753C17.5583 1.95486 17.5545 1.9522 17.5505 1.94971C17.5453 1.94644 17.54 1.94335 17.5347 1.94038C17.5322 1.93896 17.5299 1.93737 17.5273 1.93604C17.5259 1.93527 17.5244 1.93475 17.5229 1.93402C17.5174 1.93127 17.5119 1.92882 17.5063 1.92638C17.5021 1.92453 17.4978 1.92259 17.4935 1.92092C17.4884 1.91894 17.4831 1.91727 17.4779 1.91555C17.4731 1.91396 17.4683 1.91228 17.4635 1.91095C17.4585 1.90957 17.4535 1.90854 17.4485 1.90743C17.4434 1.90627 17.4383 1.90498 17.4331 1.90407C17.4279 1.90317 17.4226 1.90266 17.4173 1.90197C17.4124 1.90137 17.4075 1.90059 17.4026 1.90021C17.3966 1.89973 17.3905 1.89973 17.3845 1.89961C17.3803 1.89952 17.3761 1.89922 17.3719 1.8993C17.3655 1.89943 17.3591 1.90004 17.3527 1.90051C17.3488 1.90081 17.3448 1.90094 17.3409 1.90141C17.3351 1.9021 17.3293 1.90321 17.3235 1.9042C17.3189 1.90498 17.3143 1.90562 17.3098 1.90657C17.3049 1.90764 17.3001 1.90906 17.2952 1.91035C17.2898 1.91181 17.2843 1.91318 17.2789 1.9149C17.278 1.9152 17.2771 1.91533 17.2762 1.91563C17.0745 1.98258 15.3862 2.58453 13.8769 4.41091C12.8912 1.77835 11.4542 0.313758 11.2244 0.0909219C11.2219 0.0884297 11.2191 0.0862812 11.2164 0.083875C11.2118 0.079707 11.2073 0.0754961 11.2024 0.0715859C11.1986 0.0684922 11.1946 0.0656563 11.1906 0.0627773C11.1862 0.0595117 11.1819 0.0562461 11.1773 0.0531953C11.1729 0.0502734 11.1684 0.0476953 11.1639 0.0450312C11.1594 0.0424102 11.1551 0.0397031 11.1505 0.0372539C11.1459 0.0348047 11.1411 0.0326992 11.1364 0.0305078C11.1317 0.0282734 11.127 0.0259961 11.1221 0.0240195C11.1174 0.0221289 11.1127 0.0205391 11.1079 0.0188203C11.1028 0.0170156 11.0978 0.015125 11.0926 0.0135781C11.0878 0.0121602 11.083 0.011043 11.0781 0.00983984C11.0729 0.00855078 11.0677 0.00708984 11.0623 0.00605859C11.0568 0.00498438 11.0513 0.00433984 11.0458 0.00352344C11.041 0.00283594 11.0363 0.00197656 11.0314 0.00150391C11.022 0.000601562 11.0124 0.000171875 11.0029 8.59375e-05C11.0019 0.000128906 11.001 0 10.9999 0C10.9989 0 10.998 0.000128906 10.997 0.000128906C10.9875 0.000214844 10.978 0.000644531 10.9685 0.00154687C10.9637 0.00201953 10.9589 0.00287891 10.9542 0.00356641C10.9486 0.00433984 10.9431 0.00502734 10.9376 0.00610156C10.9323 0.00713281 10.9271 0.00855078 10.9219 0.00988281C10.917 0.0110859 10.9122 0.0121602 10.9074 0.0136211C10.9022 0.015168 10.8972 0.0170586 10.892 0.0188633C10.8873 0.0205391 10.8825 0.0221289 10.8779 0.0240625C10.873 0.0260391 10.8683 0.0283164 10.8636 0.0305508C10.8589 0.0327422 10.8542 0.0348906 10.8495 0.0373398C10.8449 0.0397461 10.8406 0.0424531 10.8361 0.0451172C10.8316 0.0477812 10.8271 0.0503594 10.8227 0.0532813C10.8181 0.0562891 10.8138 0.0595977 10.8094 0.0628633C10.8054 0.0657852 10.8014 0.0685781 10.7976 0.0716719C10.7927 0.075582 10.7882 0.079793 10.7836 0.0839609C10.7809 0.0863672 10.7781 0.0885156 10.7756 0.0910078C10.5458 0.313887 9.10884 1.77843 8.12309 4.411C6.61377 2.58461 4.92549 1.98266 4.72379 1.91572C4.72285 1.91542 4.7219 1.91525 4.721 1.91495C4.71597 1.91331 4.71081 1.91207 4.7057 1.91069C4.7005 1.90927 4.6953 1.90777 4.6901 1.90661C4.68615 1.90575 4.6822 1.90523 4.6782 1.90455C4.67176 1.90339 4.66535 1.90218 4.65891 1.90145C4.6559 1.90111 4.65285 1.90102 4.6498 1.90077C4.64249 1.90012 4.63519 1.89952 4.62793 1.89939C4.62466 1.89935 4.6214 1.89956 4.61813 1.89961C4.61113 1.89969 4.60417 1.89978 4.59721 1.90029C4.59299 1.90064 4.58883 1.90132 4.58462 1.9018C4.57864 1.90248 4.57263 1.90313 4.5667 1.90416C4.56193 1.90498 4.5572 1.90622 4.55243 1.90725C4.5471 1.90846 4.54173 1.90953 4.53645 1.91099C4.53172 1.91232 4.52704 1.91396 4.52231 1.9155C4.51703 1.91722 4.51174 1.9189 4.50658 1.92092C4.50216 1.92264 4.49782 1.92461 4.49348 1.9265C4.48806 1.92887 4.48269 1.93123 4.47745 1.93389C4.4759 1.93467 4.47431 1.93523 4.47281 1.93604C4.4701 1.93746 4.46761 1.93918 4.46495 1.94068C4.45988 1.94352 4.45485 1.94644 4.44995 1.94954C4.44574 1.9522 4.44162 1.95499 4.43758 1.95783C4.43315 1.96092 4.42881 1.9641 4.42451 1.96741C4.42039 1.97059 4.41639 1.9739 4.41244 1.97725C4.40853 1.9806 4.40471 1.98408 4.40092 1.98765C4.3971 1.99126 4.39336 1.99491 4.38975 1.99869C4.38614 2.00243 4.38271 2.0063 4.37927 2.01021C4.37587 2.01407 4.37257 2.01798 4.36943 2.02202C4.36616 2.02619 4.36298 2.03049 4.35989 2.03483C4.35697 2.03895 4.35409 2.04308 4.35138 2.04733C4.3485 2.05184 4.34575 2.05644 4.34309 2.06108C4.34051 2.06555 4.33806 2.07002 4.3357 2.07462C4.33333 2.07926 4.3311 2.08398 4.32891 2.08875C4.32667 2.09365 4.32461 2.09859 4.32264 2.10358C4.32169 2.10603 4.32049 2.1083 4.31958 2.1108C4.23936 2.33011 3.61782 4.16049 4.22871 6.62832C3.22882 6.05666 2.77864 5.85355 2.74697 5.83941C2.74663 5.83924 2.74628 5.83915 2.74594 5.83902C2.73537 5.83434 2.72454 5.83034 2.7135 5.82682C2.70998 5.8257 2.70637 5.82489 2.7028 5.82386C2.69506 5.82166 2.68724 5.81969 2.67934 5.8181C2.67521 5.81728 2.67109 5.81659 2.66696 5.81595C2.65923 5.8147 2.65145 5.81376 2.64363 5.81307C2.63976 5.81273 2.63594 5.81238 2.63212 5.81217C2.62318 5.8117 2.6142 5.8117 2.60522 5.812C2.6026 5.81208 2.59993 5.812 2.59731 5.81217C2.57394 5.8135 2.55052 5.81741 2.52744 5.82403C2.52388 5.82506 2.5204 5.82639 2.51683 5.82751C2.50931 5.82996 2.50183 5.83254 2.49444 5.83554C2.48989 5.83739 2.48538 5.8395 2.48091 5.84156C2.47734 5.84319 2.47373 5.84452 2.47021 5.84633C2.46737 5.84779 2.4648 5.84951 2.462 5.85101C2.45964 5.8523 2.45715 5.85325 2.45483 5.85462C2.45276 5.85582 2.45096 5.85729 2.44894 5.85849C2.44245 5.86244 2.43618 5.86661 2.43003 5.87095C2.42655 5.8734 2.42303 5.87576 2.41968 5.87834C2.41212 5.88414 2.40494 5.89029 2.39802 5.89664C2.39639 5.89815 2.39463 5.89952 2.39299 5.90103C2.38431 5.90932 2.37615 5.91804 2.36855 5.9272C2.36743 5.92853 2.36648 5.92999 2.36537 5.93136C2.35914 5.93905 2.35329 5.94696 2.34783 5.95517C2.34577 5.95826 2.34388 5.96148 2.34195 5.96466C2.33778 5.97141 2.33387 5.9782 2.33022 5.9852C2.32824 5.98898 2.32639 5.99277 2.32455 5.99663C2.32128 6.00359 2.31831 6.01068 2.31556 6.01786C2.3141 6.02164 2.31256 6.02534 2.31123 6.0292C2.30796 6.03866 2.30521 6.04828 2.30285 6.05799C2.30246 6.05954 2.30194 6.06104 2.30156 6.06259C2.29894 6.07411 2.29709 6.08584 2.29571 6.09761C2.29563 6.09838 2.29541 6.09911 2.29533 6.09989C2.28544 6.1933 2.0611 8.4153 2.76708 10.8416C3.12467 12.0705 3.8978 13.1074 4.94744 13.7986C4.5639 13.9912 4.29995 14.3882 4.29995 14.8458C4.29995 15.4523 4.76324 15.9525 5.35449 16.0113L6.04671 19.7335C6.29095 21.0468 7.43778 22 8.77368 22H13.2263C14.5621 22 15.7089 21.0468 15.9532 19.7334L16.6444 16.0171H17.0432C17.6891 16.0171 18.2145 15.4916 18.2145 14.8457C18.2145 14.2581 17.7794 13.7702 17.2145 13.6871C18.1815 12.9982 18.894 12.0063 19.2329 10.8416ZM16.9657 7.09943C16.4373 7.41469 15.8079 7.80149 15.0682 8.27256C15.0616 8.27677 15.0549 8.28102 15.0483 8.28523C14.9608 8.34097 14.872 8.39781 14.7814 8.45591C14.7767 8.45891 14.7722 8.46179 14.7675 8.4648C14.7655 8.44014 14.7632 8.41556 14.7611 8.39094C14.7556 8.32524 14.7498 8.2598 14.7435 8.19483C15.4921 6.62097 16.3421 4.91567 17.276 3.11433C17.43 3.95398 17.5274 5.38712 16.9657 7.09943ZM16.6603 2.90146C15.9122 4.3462 15.2179 5.72915 14.5867 7.03214C14.4681 6.3513 14.3099 5.71871 14.1263 5.13537C15.0091 3.95936 15.9863 3.27327 16.6603 2.90146ZM11.3222 1.16536C11.6409 1.55977 12.0565 2.13658 12.4742 2.89678C12.8693 3.61569 13.1962 4.36734 13.4543 5.14817C13.4565 5.15827 13.459 5.16837 13.4623 5.17834C13.8135 6.25015 14.0365 7.37924 14.1269 8.54146C14.1276 8.5504 14.1283 8.55933 14.129 8.56831C14.134 8.635 14.1386 8.70182 14.1428 8.76868C14.144 8.78784 14.1452 8.807 14.1463 8.82621C14.1474 8.84361 14.1481 8.8611 14.1491 8.87855C13.1076 9.63707 12.2535 10.6647 11.5953 11.9484C11.5937 11.9515 11.5921 11.9546 11.5905 11.9576C11.5655 12.0066 11.5407 12.056 11.5162 12.1058C11.5121 12.114 11.5081 12.1223 11.504 12.1306C11.4807 12.1782 11.4576 12.2262 11.4347 12.2746C11.4307 12.2831 11.4268 12.2917 11.4228 12.3002C11.3887 12.373 11.3552 12.4465 11.3223 12.5209V1.16536H11.3222ZM8.53774 5.17834C8.54101 5.16837 8.54341 5.15827 8.54569 5.14817C8.80385 4.36734 9.13067 3.61569 9.52576 2.89678C9.94351 2.13658 10.3591 1.55977 10.6778 1.16536V12.5208C10.6448 12.4464 10.6112 12.3727 10.5771 12.2998C10.5732 12.2915 10.5693 12.283 10.5653 12.2747C10.5425 12.2262 10.5193 12.1782 10.4959 12.1303C10.4919 12.1222 10.4879 12.114 10.4839 12.1058C10.4593 12.056 10.4346 12.0066 10.4095 11.9575C10.4079 11.9545 10.4063 11.9514 10.4047 11.9484C9.74649 10.6646 8.89236 9.63703 7.85093 8.87846C7.85192 8.86102 7.85265 8.84353 7.85368 8.82613C7.85479 8.80692 7.85604 8.7878 7.85724 8.76859C7.86146 8.70169 7.86597 8.63487 7.87104 8.56823C7.87173 8.55929 7.87237 8.55031 7.87306 8.54137C7.96351 7.3792 8.18647 6.25015 8.53774 5.17834ZM7.87357 5.13537C7.69001 5.71871 7.53189 6.35134 7.41321 7.03218C6.78212 5.72941 6.08788 4.34646 5.33958 2.90146C6.01363 3.27327 6.99087 3.95936 7.87357 5.13537ZM4.72401 3.11438C5.6581 4.91605 6.50815 6.6214 7.25646 8.19491C7.25018 8.25984 7.24438 8.32528 7.23888 8.39098C7.23682 8.4156 7.23446 8.44018 7.23248 8.46484C7.22784 8.46188 7.22333 8.459 7.21869 8.45603C7.12669 8.397 7.03641 8.33929 6.9476 8.2827C6.94313 8.27986 6.93866 8.27698 6.93423 8.27419C6.19349 7.80239 5.56323 7.41507 5.03428 7.09947C4.47251 5.38712 4.56992 3.95398 4.72401 3.11438ZM5.60104 8.19857C5.63176 8.21756 5.6627 8.23672 5.69364 8.25589C5.76312 8.29894 5.8338 8.34286 5.90578 8.38776C5.95897 8.42097 6.01242 8.45436 6.06622 8.48813C6.10777 8.51422 6.14949 8.54038 6.19186 8.56702C6.26787 8.61489 6.34449 8.66327 6.42162 8.71217C6.44907 8.72957 6.4764 8.74689 6.5042 8.76451C6.59573 8.82264 6.68798 8.88147 6.78101 8.94102C6.80296 8.95507 6.82526 8.96938 6.84739 8.98361C6.9482 9.04827 7.04956 9.11341 7.15204 9.17963C7.18874 9.20335 7.225 9.22767 7.26122 9.25203C7.28499 9.2681 7.30935 9.28477 7.335 9.30256C7.33535 9.30282 7.33573 9.30308 7.33608 9.30329C7.33612 9.30334 7.33616 9.30334 7.33616 9.30338C8.63068 10.2011 9.6276 11.5464 10.3067 13.3092C10.3109 13.3202 10.315 13.3314 10.3192 13.3424C10.3386 13.3931 10.3579 13.4441 10.3768 13.4956C10.3853 13.519 10.3936 13.5428 10.4021 13.5663C10.415 13.6022 10.428 13.6381 10.4407 13.6744H10.0498C7.88432 12.6843 6.06846 10.6708 4.92256 9.14826C4.2807 8.29542 3.77242 7.49839 3.42622 6.91788C3.92853 7.19499 4.64408 7.60753 5.60104 8.19857ZM3.38596 10.6615C3.01523 9.38725 2.91665 8.15263 2.90282 7.30078C3.25439 7.88709 3.75983 8.67432 4.40028 9.52613C5.7886 11.3727 7.22844 12.7625 8.69428 13.6744H6.07851C4.76221 13.1201 3.78273 12.0251 3.38596 10.6615ZM17.5699 14.8457C17.5699 15.1362 17.3336 15.3725 17.0431 15.3725H16.3716C16.3709 15.3725 16.3703 15.3725 16.3696 15.3725H9.45306C9.27504 15.3725 9.1308 15.5168 9.1308 15.6948C9.1308 15.8728 9.27504 16.0171 9.45306 16.0171H15.9887L15.3194 19.6156C15.132 20.6238 14.2517 21.3555 13.2263 21.3555H8.77368C7.74828 21.3555 6.86793 20.6238 6.6805 19.6156L6.01126 16.0171H7.1471C7.32512 16.0171 7.46937 15.8728 7.46937 15.6948C7.46937 15.5168 7.32512 15.3725 7.1471 15.3725H5.63099C5.62953 15.3725 5.62803 15.3725 5.62652 15.3725H5.47128C5.18081 15.3725 4.94448 15.1362 4.94448 14.8457C4.94448 14.5553 5.18081 14.3189 5.47128 14.3189H6.0144H9.97651C9.97719 14.3189 9.97784 14.319 9.97853 14.319C9.979 14.319 9.97951 14.3189 9.97999 14.3189H10.8867H11.1132H15.9855H17.0431C17.3336 14.3189 17.5699 14.5553 17.5699 14.8457ZM15.9214 13.6744H13.3049C14.6767 12.8202 16.0289 11.5451 17.3374 9.8685C17.4469 9.72817 17.422 9.52566 17.2816 9.41617C17.1415 9.30677 16.9388 9.33165 16.8293 9.47195C15.2442 11.5028 13.6064 12.9153 11.9611 13.6702C11.9583 13.6715 11.9557 13.6731 11.9529 13.6745H11.5593C11.572 13.6382 11.5849 13.6023 11.5978 13.5664C11.6063 13.5428 11.6146 13.5191 11.6232 13.4957C11.6421 13.4442 11.6613 13.3932 11.6807 13.3424C11.6849 13.3314 11.689 13.3202 11.6932 13.3093C12.3724 11.5465 13.3693 10.2012 14.6638 9.30346C14.6638 9.30342 14.6639 9.30342 14.6639 9.30338C14.6642 9.30312 14.6646 9.30286 14.665 9.30265C14.6906 9.28486 14.7149 9.26823 14.7387 9.25216C14.7749 9.22775 14.8112 9.20343 14.8479 9.17971C14.9501 9.11367 15.0512 9.0487 15.1517 8.98425C15.1744 8.96973 15.1972 8.95507 15.2197 8.94068C15.3122 8.88151 15.4038 8.82303 15.4948 8.76524C15.5238 8.7468 15.5523 8.72871 15.581 8.71058C15.6556 8.66332 15.7296 8.61652 15.8032 8.5702C15.8484 8.5418 15.8928 8.51383 15.9371 8.48611C15.9887 8.45376 16.0399 8.4217 16.091 8.38986C16.1686 8.34144 16.2447 8.29409 16.3195 8.24781C16.3449 8.23204 16.3704 8.21627 16.3956 8.20067C17.3548 7.60822 18.0717 7.19495 18.5746 6.91754C18.4505 7.12568 18.3057 7.36145 18.1411 7.61784C18.045 7.76763 18.0884 7.96696 18.2383 8.06313C18.2922 8.09772 18.3524 8.11422 18.412 8.11422C18.5181 8.11422 18.622 8.06188 18.6835 7.96598C18.8392 7.72337 18.9775 7.49929 19.0977 7.29889C19.0842 8.14975 18.9857 9.38403 18.614 10.6616C18.2172 12.0251 17.2378 13.1201 15.9214 13.6744Z" fill="black"/>
</svg>
